<mxfile host="app.diagrams.net" modified="2023-12-08T17:58:33.621Z" agent="Mozilla/5.0 (Windows NT 10.0; Win64; x64) AppleWebKit/537.36 (KHTML, like Gecko) Chrome/120.0.0.0 Safari/537.36" etag="9qi1mLvcaLR4Q0bALOCP" version="22.1.7" type="github">
  <diagram id="C5RBs43oDa-KdzZeNtuy" name="Page-1">
    <mxGraphModel dx="662" dy="418" grid="1" gridSize="10" guides="1" tooltips="1" connect="1" arrows="1" fold="1" page="1" pageScale="1" pageWidth="827" pageHeight="1169" math="0" shadow="0">
      <root>
        <mxCell id="WIyWlLk6GJQsqaUBKTNV-0" />
        <mxCell id="WIyWlLk6GJQsqaUBKTNV-1" parent="WIyWlLk6GJQsqaUBKTNV-0" />
        <mxCell id="-2NhGDHs2b3rROIA2xcD-0" value="000&lt;br&gt;MATH CALCULATION REPORT" style="rounded=0;whiteSpace=wrap;html=1;" vertex="1" parent="WIyWlLk6GJQsqaUBKTNV-1">
          <mxGeometry x="310" y="30" width="130" height="60" as="geometry" />
        </mxCell>
        <mxCell id="-2NhGDHs2b3rROIA2xcD-1" value="100&lt;br&gt;FIND MAX VALUE" style="rounded=0;whiteSpace=wrap;html=1;" vertex="1" parent="WIyWlLk6GJQsqaUBKTNV-1">
          <mxGeometry x="72.5" y="230" width="120" height="60" as="geometry" />
        </mxCell>
        <mxCell id="-2NhGDHs2b3rROIA2xcD-2" value="010&lt;br&gt;GET VALUE FORM&lt;br&gt;KEYBOARD ASSIGN VALUE INTO ARRAY" style="rounded=0;whiteSpace=wrap;html=1;" vertex="1" parent="WIyWlLk6GJQsqaUBKTNV-1">
          <mxGeometry x="310" y="120" width="125" height="70" as="geometry" />
        </mxCell>
        <mxCell id="-2NhGDHs2b3rROIA2xcD-6" value="200&lt;br&gt;FIND MIN VALUE" style="rounded=0;whiteSpace=wrap;html=1;" vertex="1" parent="WIyWlLk6GJQsqaUBKTNV-1">
          <mxGeometry x="232.5" y="230" width="120" height="60" as="geometry" />
        </mxCell>
        <mxCell id="-2NhGDHs2b3rROIA2xcD-7" value="300&lt;br&gt;SUMMATION VALUE" style="rounded=0;whiteSpace=wrap;html=1;" vertex="1" parent="WIyWlLk6GJQsqaUBKTNV-1">
          <mxGeometry x="382.5" y="230" width="130" height="60" as="geometry" />
        </mxCell>
        <mxCell id="-2NhGDHs2b3rROIA2xcD-8" value="400&lt;br&gt;AVERAGE VALUE" style="rounded=0;whiteSpace=wrap;html=1;" vertex="1" parent="WIyWlLk6GJQsqaUBKTNV-1">
          <mxGeometry x="552.5" y="230" width="120" height="60" as="geometry" />
        </mxCell>
        <mxCell id="-2NhGDHs2b3rROIA2xcD-9" value="550&lt;br&gt;SHOW STAT" style="rounded=0;whiteSpace=wrap;html=1;" vertex="1" parent="WIyWlLk6GJQsqaUBKTNV-1">
          <mxGeometry x="310" y="350" width="120" height="60" as="geometry" />
        </mxCell>
        <mxCell id="-2NhGDHs2b3rROIA2xcD-10" value="" style="endArrow=none;html=1;rounded=0;" edge="1" parent="WIyWlLk6GJQsqaUBKTNV-1">
          <mxGeometry width="50" height="50" relative="1" as="geometry">
            <mxPoint x="120" y="320" as="sourcePoint" />
            <mxPoint x="610" y="320" as="targetPoint" />
          </mxGeometry>
        </mxCell>
        <mxCell id="-2NhGDHs2b3rROIA2xcD-13" value="" style="endArrow=none;html=1;rounded=0;exitX=0.396;exitY=1.018;exitDx=0;exitDy=0;exitPerimeter=0;" edge="1" parent="WIyWlLk6GJQsqaUBKTNV-1" source="-2NhGDHs2b3rROIA2xcD-1">
          <mxGeometry width="50" height="50" relative="1" as="geometry">
            <mxPoint x="390" y="390" as="sourcePoint" />
            <mxPoint x="120" y="320" as="targetPoint" />
          </mxGeometry>
        </mxCell>
        <mxCell id="-2NhGDHs2b3rROIA2xcD-14" value="" style="endArrow=none;html=1;rounded=0;exitX=0.477;exitY=0.991;exitDx=0;exitDy=0;exitPerimeter=0;" edge="1" parent="WIyWlLk6GJQsqaUBKTNV-1" source="-2NhGDHs2b3rROIA2xcD-8">
          <mxGeometry width="50" height="50" relative="1" as="geometry">
            <mxPoint x="460" y="300" as="sourcePoint" />
            <mxPoint x="610" y="320" as="targetPoint" />
          </mxGeometry>
        </mxCell>
        <mxCell id="-2NhGDHs2b3rROIA2xcD-15" value="" style="endArrow=none;html=1;rounded=0;exitX=0.441;exitY=1.006;exitDx=0;exitDy=0;exitPerimeter=0;" edge="1" parent="WIyWlLk6GJQsqaUBKTNV-1" source="-2NhGDHs2b3rROIA2xcD-7">
          <mxGeometry width="50" height="50" relative="1" as="geometry">
            <mxPoint x="620" y="299" as="sourcePoint" />
            <mxPoint x="440" y="320" as="targetPoint" />
          </mxGeometry>
        </mxCell>
        <mxCell id="-2NhGDHs2b3rROIA2xcD-16" value="" style="endArrow=none;html=1;rounded=0;entryX=0.52;entryY=1.001;entryDx=0;entryDy=0;entryPerimeter=0;" edge="1" parent="WIyWlLk6GJQsqaUBKTNV-1" target="-2NhGDHs2b3rROIA2xcD-6">
          <mxGeometry width="50" height="50" relative="1" as="geometry">
            <mxPoint x="295" y="320" as="sourcePoint" />
            <mxPoint x="300" y="290" as="targetPoint" />
          </mxGeometry>
        </mxCell>
        <mxCell id="-2NhGDHs2b3rROIA2xcD-17" value="" style="endArrow=none;html=1;rounded=0;exitX=0.5;exitY=0;exitDx=0;exitDy=0;" edge="1" parent="WIyWlLk6GJQsqaUBKTNV-1" source="-2NhGDHs2b3rROIA2xcD-9">
          <mxGeometry width="50" height="50" relative="1" as="geometry">
            <mxPoint x="305" y="330" as="sourcePoint" />
            <mxPoint x="370" y="320" as="targetPoint" />
          </mxGeometry>
        </mxCell>
        <mxCell id="-2NhGDHs2b3rROIA2xcD-18" value="" style="endArrow=none;html=1;rounded=0;exitX=0.478;exitY=-0.006;exitDx=0;exitDy=0;exitPerimeter=0;" edge="1" parent="WIyWlLk6GJQsqaUBKTNV-1" source="-2NhGDHs2b3rROIA2xcD-1">
          <mxGeometry width="50" height="50" relative="1" as="geometry">
            <mxPoint x="132" y="240" as="sourcePoint" />
            <mxPoint x="130" y="210" as="targetPoint" />
          </mxGeometry>
        </mxCell>
        <mxCell id="-2NhGDHs2b3rROIA2xcD-19" value="" style="endArrow=none;html=1;rounded=0;" edge="1" parent="WIyWlLk6GJQsqaUBKTNV-1">
          <mxGeometry width="50" height="50" relative="1" as="geometry">
            <mxPoint x="130" y="210" as="sourcePoint" />
            <mxPoint x="620" y="210" as="targetPoint" />
          </mxGeometry>
        </mxCell>
        <mxCell id="-2NhGDHs2b3rROIA2xcD-20" value="" style="endArrow=none;html=1;rounded=0;exitX=0.562;exitY=-0.013;exitDx=0;exitDy=0;exitPerimeter=0;" edge="1" parent="WIyWlLk6GJQsqaUBKTNV-1" source="-2NhGDHs2b3rROIA2xcD-8">
          <mxGeometry width="50" height="50" relative="1" as="geometry">
            <mxPoint x="490" y="320" as="sourcePoint" />
            <mxPoint x="620" y="210" as="targetPoint" />
          </mxGeometry>
        </mxCell>
        <mxCell id="-2NhGDHs2b3rROIA2xcD-21" value="" style="endArrow=none;html=1;rounded=0;entryX=0.487;entryY=1.005;entryDx=0;entryDy=0;entryPerimeter=0;" edge="1" parent="WIyWlLk6GJQsqaUBKTNV-1" target="-2NhGDHs2b3rROIA2xcD-2">
          <mxGeometry width="50" height="50" relative="1" as="geometry">
            <mxPoint x="371" y="210" as="sourcePoint" />
            <mxPoint x="390" y="320" as="targetPoint" />
          </mxGeometry>
        </mxCell>
        <mxCell id="-2NhGDHs2b3rROIA2xcD-22" value="" style="endArrow=none;html=1;rounded=0;" edge="1" parent="WIyWlLk6GJQsqaUBKTNV-1">
          <mxGeometry width="50" height="50" relative="1" as="geometry">
            <mxPoint x="290" y="229" as="sourcePoint" />
            <mxPoint x="290" y="210" as="targetPoint" />
          </mxGeometry>
        </mxCell>
        <mxCell id="-2NhGDHs2b3rROIA2xcD-23" value="" style="endArrow=none;html=1;rounded=0;exitX=0.522;exitY=-0.011;exitDx=0;exitDy=0;exitPerimeter=0;" edge="1" parent="WIyWlLk6GJQsqaUBKTNV-1" source="-2NhGDHs2b3rROIA2xcD-7">
          <mxGeometry width="50" height="50" relative="1" as="geometry">
            <mxPoint x="300" y="239" as="sourcePoint" />
            <mxPoint x="450" y="210" as="targetPoint" />
          </mxGeometry>
        </mxCell>
        <mxCell id="-2NhGDHs2b3rROIA2xcD-24" value="" style="endArrow=none;html=1;rounded=0;exitX=0.554;exitY=0.001;exitDx=0;exitDy=0;entryX=0.531;entryY=0.99;entryDx=0;entryDy=0;exitPerimeter=0;entryPerimeter=0;" edge="1" parent="WIyWlLk6GJQsqaUBKTNV-1" source="-2NhGDHs2b3rROIA2xcD-2" target="-2NhGDHs2b3rROIA2xcD-0">
          <mxGeometry width="50" height="50" relative="1" as="geometry">
            <mxPoint x="460" y="239" as="sourcePoint" />
            <mxPoint x="460" y="220" as="targetPoint" />
          </mxGeometry>
        </mxCell>
      </root>
    </mxGraphModel>
  </diagram>
</mxfile>
